<svg width="1006" height="56" viewBox="0 0 1006 56" fill="none" xmlns="http://www.w3.org/2000/svg">
<path d="M111.405 -2.68948H31.7152C14.6698 -2.68948 0.851807 -16.5075 0.851807 -33.5529C0.851807 -50.5982 14.6698 -64.4162 31.7152 -64.4162H974.285C991.33 -64.4162 1005.15 -50.5982 1005.15 -33.5529C1005.15 -16.5075 991.33 -2.68948 974.285 -2.68948H871.723C855.839 -2.68948 842.964 10.1864 842.964 26.0696C842.964 41.9527 830.088 54.8286 814.204 54.8286H168.923C153.04 54.8286 140.164 41.9527 140.164 26.0696C140.164 10.1864 127.288 -2.68948 111.405 -2.68948Z" fill="url(#paint0_linear_9_9)" stroke="white" stroke-opacity="0.2"/>
<defs>
<linearGradient id="paint0_linear_9_9" x1="503" y1="-64.4162" x2="503" y2="54.8286" gradientUnits="userSpaceOnUse">
<stop offset="0.565128" stop-color="#1A0D52"/>
<stop offset="1" stop-color="#281070"/>
</linearGradient>
</defs>
</svg>
